PathFileType	4	(X/Y/Z)	s07c0303.trc
DataRate	CameraRate	NumFrames	NumMarkers	Units	OrigDataRate	OrigDataStartFrame	OrigNumFrames
200	200	5	48	mm	200	250	2000
Frame#	Time	racr			lacr			c7			jug			rlel			rdr			llel			ldr			s2			lic			ric			lasi			rasi			rpsi			lpsi			rgt			lgt			rth1			rth2			rth3			rth4			rlfc			rmfc			rsh1			rsh2			rsh3			rsh4			rlmal			rcal			rtoe			rmt5			lth1			lth2			lth4			lth3			llfc			lmfc			lsh1			lsh2			lsh3			lsh4			llmal			lcal			ltoe			lmt5			SBIKE			LBIKE			RBIKE			
		X1	Y1	Z1	X2	Y2	Z2	X3	Y3	Z3	X4	Y4	Z4	X5	Y5	Z5	X6	Y6	Z6	X7	Y7	Z7	X8	Y8	Z8	X9	Y9	Z9	X10	Y10	Z10	X11	Y11	Z11	X12	Y12	Z12	X13	Y13	Z13	X14	Y14	Z14	X15	Y15	Z15	X16	Y16	Z16	X17	Y17	Z17	X18	Y18	Z18	X19	Y19	Z19	X20	Y20	Z20	X21	Y21	Z21	X22	Y22	Z22	X23	Y23	Z23	X24	Y24	Z24	X25	Y25	Z25	X26	Y26	Z26	X27	Y27	Z27	X28	Y28	Z28	X29	Y29	Z29	X30	Y30	Z30	X31	Y31	Z31	X32	Y32	Z32	X33	Y33	Z33	X34	Y34	Z34	X35	Y35	Z35	X36	Y36	Z36	X37	Y37	Z37	X38	Y38	Z38	X39	Y39	Z39	X40	Y40	Z40	X41	Y41	Z41	X42	Y42	Z42	X43	Y43	Z43	X44	Y44	Z44	X45	Y45	Z45	X46	Y46	Z46	X47	Y47	Z47	X48	Y48	Z48	
250	1.2500	488.925758	1323.774653	-94.965575	463.712789	1314.630081	-389.760805	475.543981	1348.101597	-246.037137	406.117195	1222.095597	-240.051904	459.794641	1007.515375	40.381478	713.626345	913.794035	-66.102773	454.876405	1013.417727	-528.888264	714.213352	911.913888	-422.820473	-126.112529	1216.661517	-245.729549	45.562583	1233.461508	-385.232747	47.256720	1211.541478	-93.396651	58.639642	1148.692700	-362.658261	46.959741	1157.872161	-109.614341	-92.171818	1248.625824	-191.813394	-74.926521	1257.556999	-299.381162	-33.153904	1115.754770	-48.155767	-39.015085	1101.343880	-423.476173	102.291449	1036.226616	-52.183902	184.819465	1009.753402	-65.445428	245.424496	949.519346	-65.697621	200.722610	1039.065093	-82.072387	353.680470	860.216957	-101.263672	344.009302	843.095914	-204.802242	314.749537	721.134452	-74.561410	311.415113	633.180826	-92.827171	269.702085	557.328368	-86.021622	326.336495	632.551988	-129.788191	225.243606	427.846317	-85.328357	159.586837	384.466008	-112.570265	448.637956	370.823717	-129.200499	373.365791	335.123538	-57.684465	23.012643	999.029133	-428.534362	99.126956	954.267772	-433.804851	125.321650	979.268086	-426.678772	143.428275	877.182157	-431.861011	254.346160	728.006636	-402.548477	245.331342	714.337509	-301.794169	150.436170	618.309028	-417.748856	103.667828	549.731249	-394.093169	25.582486	505.081935	-401.288569	107.421261	552.292500	-352.668718	-78.425137	419.133283	-396.097539	-159.614383	402.198167	-360.796177	112.364431	304.034360	-359.814670	27.707056	303.218237	-422.879442	-261.529477	962.038423	-237.879346	-82.800681	79.178907	-436.797364	-82.921661	79.153056	-39.410768	
251	1.2550	488.941772	1323.799841	-94.948983	463.709022	1314.635745	-389.755887	475.565170	1348.120945	-246.031007	406.148998	1222.117372	-239.997709	459.833295	1007.548295	40.389923	713.629612	913.804705	-66.085287	454.898202	1013.440357	-528.895881	714.215665	911.912968	-422.820897	-126.092913	1216.705530	-245.747492	45.547081	1233.506486	-385.202271	47.292585	1211.557542	-93.401602	58.611552	1148.761426	-362.658222	46.963593	1157.894959	-109.654413	-92.178856	1248.670469	-191.804307	-74.943733	1257.619585	-299.323027	-33.135413	1115.762792	-48.159216	-39.364153	1100.939097	-422.956373	102.291068	1036.182543	-52.184423	184.781895	1009.664136	-65.442620	245.363489	949.378608	-65.702921	200.722373	1038.957373	-82.040812	353.577194	860.039150	-101.277240	343.900183	842.876859	-204.777454	314.644499	720.918568	-74.574051	311.308126	632.957010	-92.839485	269.588578	557.147710	-86.039472	326.193635	632.364339	-129.809424	225.132984	427.625367	-85.322474	159.504948	384.255358	-112.593658	448.568663	371.037335	-129.191764	373.341378	335.114119	-57.680252	23.015042	999.086944	-428.545622	99.111027	954.308956	-433.793988	125.309778	979.290197	-426.708075	143.405356	877.209027	-431.871843	254.311133	728.038493	-402.505539	245.342875	714.395710	-301.765897	150.423663	618.328618	-417.724404	103.674990	549.738899	-394.097295	25.561630	505.061420	-401.292464	107.412882	552.319570	-352.628350	-78.407129	419.313106	-396.408580	-159.614679	402.215625	-360.792835	112.373735	304.045376	-359.802411	27.693153	303.251383	-422.916177	-261.529447	962.030875	-237.877334	-82.802817	79.186949	-436.797379	-82.922762	79.138709	-39.428202	
252	1.2600	488.968122	1323.819270	-94.971680	463.718444	1314.653239	-389.764388	475.576804	1348.141313	-246.032796	406.169318	1222.131252	-240.013778	459.857492	1007.598135	40.418196	713.630716	913.799963	-66.108199	454.925101	1013.447405	-528.899121	714.218337	911.912288	-422.821787	-126.078685	1216.759701	-245.737964	45.551361	1233.591261	-385.183976	47.319148	1211.586204	-93.404126	58.633803	1148.849674	-362.696284	46.985825	1157.952986	-109.637640	-92.192793	1248.738627	-191.750506	-74.933618	1257.680881	-299.321350	-33.100782	1115.782819	-48.170897	-39.364168	1101.012165	-422.936918	102.278195	1036.175521	-52.203300	184.764628	1009.580772	-65.453929	245.295286	949.242947	-65.719395	200.709849	1038.877486	-82.021368	353.453043	859.885068	-101.298763	343.805100	842.679209	-204.729871	314.511566	720.747898	-74.606555	311.193491	632.811042	-92.861437	269.489102	556.994874	-86.052254	326.076558	632.182032	-129.821349	225.002726	427.444949	-85.343939	159.426155	384.030627	-112.562736	448.493622	371.100474	-129.207444	373.312921	335.130757	-57.657946	23.025399	999.160066	-428.533077	99.122317	954.341883	-433.766287	125.311463	979.336359	-426.724612	143.393006	877.251951	-431.876467	254.314390	728.096132	-402.460069	245.324529	714.452199	-301.731767	150.432677	618.351393	-417.698765	103.682762	549.771454	-394.070177	25.595336	505.058729	-401.280607	107.424799	552.331402	-352.616872	-78.396460	419.332907	-396.418344	-159.608713	402.239222	-360.807660	112.366451	304.060425	-359.817431	27.695911	303.256845	-422.916244	-261.532381	962.038954	-237.887379	-82.804101	79.193606	-436.800049	-82.903496	79.145050	-39.415672	
253	1.2650	488.996473	1323.843927	-95.008921	463.739669	1314.668031	-389.786906	475.616103	1348.134792	-246.025658	406.201875	1222.177618	-240.028255	459.914315	1007.658948	40.463802	713.644834	913.796556	-66.107053	454.934300	1013.466960	-528.927631	714.220996	911.912149	-422.823445	-126.086560	1216.815586	-245.727907	45.548930	1233.655387	-385.155361	47.347628	1211.614355	-93.408927	58.613719	1148.933266	-362.686568	46.989317	1157.974805	-109.677995	-92.176442	1248.821311	-191.758569	-74.932119	1257.750329	-299.272856	-33.103232	1115.807031	-48.166619	-39.360654	1101.094095	-422.934821	102.295241	1036.146285	-52.221880	184.756939	1009.509889	-65.437580	245.251471	949.129919	-65.767998	200.737271	1038.823570	-81.992683	353.340034	859.755773	-101.332000	343.744232	842.500405	-204.726843	314.406876	720.600657	-74.615235	311.102550	632.690700	-92.896567	269.380012	556.881429	-86.044152	325.963057	632.048703	-129.848953	224.886659	427.298026	-85.382234	159.365257	383.780520	-112.573556	448.454446	371.149044	-129.246002	373.287253	335.117063	-57.669548	23.040635	999.236419	-428.502357	99.128386	954.395566	-433.719602	125.322773	979.386206	-426.732699	143.370250	877.307214	-431.867559	254.286383	728.132620	-402.405505	245.307643	714.505359	-301.682426	150.445186	618.383991	-417.667326	103.702004	549.783740	-394.037392	25.602504	505.079091	-401.267521	107.421097	552.347487	-352.607419	-78.379539	419.329662	-396.444126	-159.593497	402.259845	-360.814543	112.390779	304.049577	-359.806475	27.711016	303.243698	-422.918702	-261.531090	962.041141	-237.894609	-82.798172	79.175722	-436.807078	-82.924574	79.157343	-39.403912	
254	1.2700	489.022141	1323.862962	-94.997395	463.748255	1314.667434	-389.797901	475.633357	1348.155467	-246.058183	406.183941	1222.189170	-240.045118	459.967558	1007.709958	40.499286	713.648172	913.802464	-66.108331	454.959885	1013.491007	-528.952476	714.223456	911.912733	-422.826206	-126.069805	1216.870596	-245.707622	45.561808	1233.730136	-385.126358	47.368714	1211.640246	-93.395306	58.601115	1148.993792	-362.663861	46.982690	1158.011742	-109.670670	-92.165875	1248.876223	-191.735882	-74.946948	1257.830710	-299.229768	-33.075162	1115.833946	-48.172980	-39.367281	1101.178640	-422.927432	102.290784	1036.169935	-52.249861	184.733508	1009.436267	-65.445115	245.194477	949.029418	-65.771764	200.753098	1038.791384	-81.951477	353.244183	859.645099	-101.370879	343.657134	842.602287	-207.013951	314.321625	720.520604	-74.618880	311.038262	632.604903	-92.925628	269.312362	556.804600	-86.073623	325.887563	631.968818	-129.872623	224.807430	427.242954	-85.393286	159.309411	383.648542	-112.578692	448.391181	371.195367	-129.230759	373.260779	335.114408	-57.666453	23.051029	999.335982	-428.500817	99.122320	954.456669	-433.675638	125.326314	979.450459	-426.746880	143.376394	877.371916	-431.842349	254.257580	728.196249	-402.359102	245.296044	714.548930	-301.627641	150.437352	618.419839	-417.646679	103.703993	549.795505	-394.032778	25.612338	505.080543	-401.271933	107.433498	552.364239	-352.604544	-78.364950	419.333372	-396.448513	-159.597841	402.261634	-360.824932	112.389103	304.053389	-359.822297	27.723993	303.236858	-422.931567	-261.530985	962.031816	-237.899478	-82.803181	79.189001	-436.811312	-82.897136	79.140023	-39.439549	
